<?xml version="1.0" encoding="UTF-8"?>
<svg width="600" height="400" viewBox="0 0 600 400" xmlns="http://www.w3.org/2000/svg">
    <!-- Background -->
    <rect width="600" height="400" fill="#f0f4f8"/>
    
    <!-- Left Panel (Before) -->
    <g transform="translate(50,50)">
        <!-- Person sweating -->
        <circle cx="100" cy="100" r="50" fill="#fbd38d"/>
        <circle cx="90" cy="90" r="5" fill="#2d3748"/>
        <circle cx="110" cy="90" r="5" fill="#2d3748"/>
        <path d="M85 110 Q100 120 115 110" stroke="#2d3748" stroke-width="3" fill="none"/>
        <!-- Sweat drops -->
        <path d="M70 70 Q65 80 70 90" stroke="#4299e1" stroke-width="2" fill="none"/>
        <path d="M130 70 Q135 80 130 90" stroke="#4299e1" stroke-width="2" fill="none"/>
        <!-- Price tag -->
        <g transform="translate(120,60) rotate(15)">
            <rect width="80" height="40" fill="#e53e3e" rx="5"/>
            <text x="40" y="25" font-family="Arial" font-size="16" fill="white" text-anchor="middle">$500/night</text>
        </g>
        <!-- Caption -->
        <text x="100" y="180" font-family="Arial" font-size="14" fill="#2d3748" text-anchor="middle">Me checking hotel prices</text>
        <text x="100" y="200" font-family="Arial" font-size="14" fill="#2d3748" text-anchor="middle">without HotelDropBot 😰</text>
    </g>

    <!-- Right Panel (After) -->
    <g transform="translate(350,50)">
        <!-- Happy person with sunglasses -->
        <circle cx="100" cy="100" r="50" fill="#fbd38d"/>
        <circle cx="90" cy="90" r="8" fill="#2d3748"/>
        <circle cx="110" cy="90" r="8" fill="#2d3748"/>
        <rect x="85" y="85" width="30" height="10" fill="#2d3748" rx="2"/>
        <path d="M85 115 Q100 130 115 115" stroke="#2d3748" stroke-width="3" fill="none"/>
        <!-- Price tag -->
        <g transform="translate(120,60) rotate(-15)">
            <rect width="80" height="40" fill="#48bb78" rx="5"/>
            <text x="40" y="25" font-family="Arial" font-size="16" fill="white" text-anchor="middle">$150/night</text>
        </g>
        <!-- Money effects -->
        <text x="70" y="70" font-family="Arial" font-size="20" fill="#48bb78">💰</text>
        <text x="130" y="70" font-family="Arial" font-size="20" fill="#48bb78">💸</text>
        <!-- Caption -->
        <text x="100" y="180" font-family="Arial" font-size="14" fill="#2d3748" text-anchor="middle">Me after letting</text>
        <text x="100" y="200" font-family="Arial" font-size="14" fill="#2d3748" text-anchor="middle">HotelDropBot cook 😎</text>
    </g>

    <!-- Divider -->
    <line x1="300" y1="50" x2="300" y2="250" stroke="#cbd5e0" stroke-width="2" stroke-dasharray="5,5"/>
    
    <!-- Bot at the bottom -->
    <g transform="translate(250,280)">
        <circle cx="50" cy="50" r="30" fill="#9f7aea"/>
        <circle cx="40" cy="45" r="5" fill="white"/>
        <circle cx="60" cy="45" r="5" fill="white"/>
        <path d="M40 60 Q50 70 60 60" stroke="white" stroke-width="3" fill="none"/>
        <!-- Speech bubble -->
        <path d="M90 40 Q100 40 110 30 L120 20 L100 25 Q90 30 90 40" fill="#ffffff" stroke="#2d3748" stroke-width="2"/>
        <text x="140" y="55" font-family="Arial" font-size="14" fill="#2d3748">"Leave the price hunting to me! 🎯"</text>
    </g>
</svg> 